HIERARCHY
ROOT Hips
{
	OFFSET 59.642200 -27.380615 97.031891
	CHANNELS 6 Xposition Yposition Zposition Xrotation Yrotation Zrotation
	JOINT spine
	{
		OFFSET 0.000000 -0.458069 7.965683
		CHANNELS 3 Xrotation Yrotation Zrotation
		JOINT spine1
		{
			OFFSET 0.000000 -0.000002 10.243103
			CHANNELS 3 Xrotation Yrotation Zrotation
			JOINT spine2
			{
				OFFSET 0.000000 -0.000002 9.814751
				CHANNELS 3 Xrotation Yrotation Zrotation
				JOINT Neck
				{
					OFFSET 0.000000 -1.201384 25.198601
					CHANNELS 3 Xrotation Yrotation Zrotation
					JOINT Head
					{
						OFFSET 0.000000 0.000000 7.613144
						CHANNELS 3 Xrotation Yrotation Zrotation
						End Site
						{
							OFFSET 0.000000 6.077326 18.428101
						}
					}
				}
				JOINT RightShoulder
				{
					OFFSET -4.132702 0.575449 10.599205
					CHANNELS 3 Xrotation Yrotation Zrotation
					JOINT RightArm
					{
						OFFSET 0.000000 -0.000002 13.901794
						CHANNELS 3 Xrotation Yrotation Zrotation
						JOINT RightArmRoll
						{
							OFFSET 0.000000 0.000000 7.017883
							CHANNELS 3 Xrotation Yrotation Zrotation
							JOINT RightForeArm
							{
								OFFSET 0.000000 -0.000004 20.440598
								CHANNELS 3 Xrotation Yrotation Zrotation
								JOINT RightForeArmRoll
								{
									OFFSET 0.000000 -0.000002 7.875153
									CHANNELS 3 Xrotation Yrotation Zrotation
									JOINT RightHand
									{
										OFFSET 0.000000 -0.000002 15.803696
										CHANNELS 3 Xrotation Yrotation Zrotation
										End Site
										{
											OFFSET 0.000000 0.000000 0.100006
										}
									}
								}
							}
						}
					}
				}
				JOINT LeftShoulder
				{
					OFFSET 4.132702 0.575449 10.599205
					CHANNELS 3 Xrotation Yrotation Zrotation
					JOINT LeftArm
					{
						OFFSET 0.000000 -0.000002 13.901794
						CHANNELS 3 Xrotation Yrotation Zrotation
						JOINT LeftArmRoll
						{
							OFFSET 0.000000 0.000000 7.017883
							CHANNELS 3 Xrotation Yrotation Zrotation
							JOINT LeftForeArm
							{
								OFFSET 0.000000 -0.000004 20.440598
								CHANNELS 3 Xrotation Yrotation Zrotation
								JOINT LeftForeArmRoll
								{
									OFFSET 0.000000 -0.000002 7.875153
									CHANNELS 3 Xrotation Yrotation Zrotation
									JOINT LeftHand
									{
										OFFSET 0.000000 -0.000002 15.803696
										CHANNELS 3 Xrotation Yrotation Zrotation
										End Site
										{
											OFFSET 0.000000 0.000000 0.100006
										}
									}
								}
							}
						}
					}
				}
			}
		}
	}
	JOINT RightUpLeg
	{
		OFFSET -7.060482 1.086090 -1.294701
		CHANNELS 3 Xrotation Yrotation Zrotation
		JOINT RightUpLegRoll
		{
			OFFSET 0.000000 -0.000004 18.530800
			CHANNELS 3 Xrotation Yrotation Zrotation
			JOINT RightLeg
			{
				OFFSET 0.000000 0.000004 -22.947601
				CHANNELS 3 Xrotation Yrotation Zrotation
				JOINT RightLegRoll
				{
					OFFSET 0.000000 -0.000004 23.022598
					CHANNELS 3 Xrotation Yrotation Zrotation
					JOINT RightFoot
					{
						OFFSET 0.000000 -0.000002 19.162506
						CHANNELS 3 Xrotation Yrotation Zrotation
						JOINT RightToeBase
						{
							OFFSET 0.000000 -0.000004 16.018799
							CHANNELS 3 Xrotation Yrotation Zrotation
							End Site
							{
								OFFSET 0.006790 0.894205 7.757812
							}
						}
					}
				}
			}
		}
	}
	JOINT LeftUpLeg
	{
		OFFSET 7.060482 1.086090 -1.294701
		CHANNELS 3 Xrotation Yrotation Zrotation
		JOINT LeftUpLegRoll
		{
			OFFSET 0.000000 -0.000004 18.530899
			CHANNELS 3 Xrotation Yrotation Zrotation
			JOINT LeftLeg
			{
				OFFSET 0.000000 -0.000004 22.947502
				CHANNELS 3 Xrotation Yrotation Zrotation
				JOINT LeftLegRoll
				{
					OFFSET 0.000000 -0.000004 23.235504
					CHANNELS 3 Xrotation Yrotation Zrotation
					JOINT LeftFoot
					{
						OFFSET 0.000000 -0.000002 18.949600
						CHANNELS 3 Xrotation Yrotation Zrotation
						JOINT LeftToeBase
						{
							OFFSET 0.000000 -0.000004 16.018799
							CHANNELS 3 Xrotation Yrotation Zrotation
							End Site
							{
								OFFSET -0.030426 0.894207 7.757812
							}
						}
					}
				}
			}
		}
	}
}
MOTION
Frames: 8
Frame Time: 0.041667
59.872601 -27.404514 96.998795 -3.682395 -1.559884 0.774683 -0.681219 0.675603 -0.329521 2.644404 1.358423 -0.657630 4.289624 1.350448 -0.673858 2.734401 25.765639 -8.674181 24.043806 -26.576534 -3.962298 -14.024285 -37.629927 -15.775792 -125.343779 -118.119324 -94.753452 -0.000000 -0.000001 0.000001 1.065361 4.476140 -0.926021 -0.000012 0.000009 -3.000419 -5.000182 -7.998975 0.000129 -7.192739 68.073442 9.171795 -64.999256 113.364584 59.307598 0.000004 0.000029 0.000001 7.030496 9.090269 0.136625 -0.000001 -0.000011 3.000010 -5.000191 7.998825 -0.000176 4.010016 -174.885491 4.985507 -179.999991 0.000005 -1.177998 174.276238 -2.155208 -0.477971 -0.000006 -0.000005 0.095218 69.864810 6.905418 2.033754 25.456957 -7.355616 0.000002 2.548422 176.340608 -0.845051 -0.000005 -0.000004 -1.176380 -6.190870 1.884036 0.237049 -0.000010 0.000000 -0.083920 69.373589 -6.921246 -2.036035 25.456950 7.355614 -0.000002 
59.874802 -27.430420 97.016182 -3.670159 -1.564916 0.767759 -0.684563 0.672528 -0.331156 2.637726 1.353486 -0.660866 4.282953 1.345464 -0.677034 2.764150 25.665153 -8.649487 24.018014 -26.454453 -3.962022 -14.021560 -37.720502 -15.776031 -125.239687 -117.962025 -94.826624 -0.000001 -0.000000 0.000003 0.958165 4.335826 -0.923806 -0.000012 0.000010 -3.000416 -5.000181 -7.998971 0.000124 -7.169198 68.049523 9.143677 -65.006401 113.361913 59.277832 0.000004 0.000030 0.000002 7.024800 9.057544 0.140589 0.000000 -0.000011 3.000010 -5.000193 7.998826 -0.000176 3.989844 -174.875396 4.988462 -179.999991 0.000005 -1.177997 174.267386 -2.158166 -0.478604 -0.000007 -0.000005 0.095379 69.867146 6.905421 2.033509 25.456953 -7.355616 0.000002 2.532317 176.349556 -0.837533 -0.000005 -0.000005 -1.176470 -6.196072 1.883978 0.236994 -0.000010 0.000000 -0.083785 69.373302 -6.921374 -2.036077 25.456957 7.355614 -0.000002 
59.881901 -27.419518 97.011192 -3.659831 -1.569205 0.759538 -0.687585 0.669405 -0.332586 2.631679 1.348288 -0.663696 4.276892 1.340249 -0.679802 2.794584 25.563952 -8.624851 23.991275 -26.332462 -3.961750 -14.018682 -37.814089 -15.776291 -125.138027 -117.813305 -94.882030 -0.000002 0.000001 0.000002 0.858536 4.212869 -0.922270 -0.000011 0.000011 -3.000423 -5.000180 -7.998973 0.000124 -7.145241 68.024026 9.114979 -65.005629 113.359263 59.241236 0.000003 0.000029 0.000002 7.020803 9.025295 0.144358 -0.000001 -0.000011 3.000010 -5.000191 7.998826 -0.000176 3.972060 -174.867295 4.991256 -179.999991 0.000005 -1.177998 174.259149 -2.160119 -0.479114 -0.000006 -0.000005 0.095544 69.869270 6.905419 2.033376 25.456952 -7.355615 0.000001 2.519788 176.356509 -0.831620 -0.000005 -0.000004 -1.176560 -6.199606 1.884503 0.236930 -0.000010 -0.000000 -0.083652 69.372818 -6.921490 -2.036028 25.456952 7.355614 -0.000002 
59.874802 -27.424522 97.011284 -3.651844 -1.572682 0.749756 -0.690228 0.666231 -0.333769 2.626391 1.342809 -0.666037 4.271611 1.334733 -0.682078 2.825851 25.462334 -8.600396 23.963599 -26.210550 -3.961588 -14.015839 -37.911044 -15.776740 -125.038702 -117.675239 -94.917042 -0.000001 -0.000000 0.000003 0.766572 4.109784 -0.921414 -0.000012 0.000008 -3.000421 -5.000180 -7.998975 0.000127 -7.121051 67.996814 9.085885 -64.999311 113.356388 59.200542 0.000003 0.000029 0.000001 7.018445 8.993648 0.147930 0.000002 -0.000011 3.000010 -5.000190 7.998826 -0.000176 3.957175 -174.859222 4.994105 -179.999991 0.000005 -1.177997 174.251609 -2.162089 -0.478602 -0.000007 -0.000005 0.095710 69.871066 6.905404 2.033262 25.456957 -7.355615 0.000002 2.511542 176.362492 -0.827495 -0.000005 -0.000005 -1.176640 -6.201131 1.885690 0.236856 -0.000010 0.000000 -0.083518 69.371902 -6.921624 -2.036011 25.456955 7.355613 -0.000001 
59.865299 -27.422417 97.012276 -3.646580 -1.575266 0.738142 -0.692407 0.663002 -0.334663 2.622024 1.336980 -0.667807 4.267240 1.328887 -0.683777 2.858104 25.360689 -8.576208 23.934885 -26.088727 -3.961563 -14.012970 -38.011604 -15.777312 -124.942724 -117.549482 -94.929965 -0.000000 0.000000 -0.000002 0.682381 4.029056 -0.921235 -0.000012 0.000010 -3.000421 -5.000179 -7.998974 0.000127 -7.096796 67.967793 9.056571 -64.987194 113.353109 59.155729 0.000003 0.000029 0.000001 7.017642 8.962731 0.151295 0.000004 -0.000011 3.000010 -5.000193 7.998826 -0.000176 3.945685 -174.852160 4.996975 -179.999991 0.000005 -1.177998 174.244860 -2.165040 -0.479156 -0.000007 -0.000005 0.095878 69.872555 6.905416 2.033072 25.456953 -7.355615 0.000001 2.508358 176.366467 -0.825429 -0.000005 -0.000004 -1.176730 -6.200297 1.887662 0.236775 -0.000010 0.000000 -0.083385 69.370570 -6.921738 -2.036014 25.456953 7.355613 -0.000002 
59.893200 -27.361917 97.006584 -3.644451 -1.576896 0.724427 -0.694055 0.659717 -0.335227 2.618716 1.330780 -0.668922 4.263928 1.322670 -0.684818 2.891493 25.259020 -8.552397 23.904909 -25.967126 -3.962025 -14.010077 -38.115837 -15.778032 -124.850203 -117.438040 -94.918285 -0.000000 0.000000 -0.000000 0.606066 3.973190 -0.921725 -0.000011 0.000011 -3.000420 -5.000181 -7.998974 0.000125 -7.072724 67.936968 9.027289 -64.965310 113.350452 59.102645 0.000003 0.000029 0.000001 7.018325 8.932697 0.154439 0.000002 -0.000011 3.000010 -5.000191 7.998825 -0.000176 3.938103 -174.847133 4.999876 -179.999991 0.000005 -1.177997 174.239055 -2.167015 -0.479576 -0.000007 -0.000005 0.096047 69.873716 6.905415 2.032900 25.456955 -7.355614 0.000001 2.510942 176.369473 -0.825600 -0.000005 -0.000005 -1.176820 -6.196776 1.890477 0.236683 -0.000011 0.000000 -0.083252 69.368801 -6.921835 -2.035942 25.456953 7.355613 -0.000001 
59.894497 -27.379316 97.009781 -3.645902 -1.577074 0.708320 -0.695082 0.656358 -0.335376 2.616649 1.324139 -0.669218 4.261856 1.316032 -0.685033 2.925631 25.156843 -8.529003 23.874778 -25.846013 -3.962414 -14.007276 -38.226236 -15.779194 -124.755564 -117.338948 -94.869149 -0.000001 0.000000 0.000001 0.541224 3.948376 -0.922434 -0.000012 0.000012 -3.000409 -5.000181 -7.998973 0.000120 -7.047152 67.903384 8.996132 -64.934807 113.347290 59.042156 0.000005 0.000028 0.000001 7.021270 8.902795 0.157391 0.000001 -0.000011 3.000010 -5.000192 7.998826 -0.000176 3.935104 -174.843130 5.002581 -179.999991 0.000005 -1.177997 174.234519 -2.168982 -0.479948 -0.000007 -0.000005 0.096221 69.874461 6.905404 2.032749 25.456957 -7.355614 0.000001 2.519968 176.370511 -0.828740 -0.000005 -0.000004 -1.176910 -6.190466 1.894367 0.236585 -0.000010 0.000000 -0.083131 69.366520 -6.921977 -2.035911 25.456953 7.355613 -0.000002 
59.880695 -27.419521 97.011993 -3.650800 -1.575548 0.689919 -0.695521 0.652916 -0.335097 2.615751 1.317077 -0.668667 4.260954 1.308974 -0.684399 2.960027 25.053148 -8.505892 23.845135 -25.725773 -3.962357 -14.004693 -38.344084 -15.780990 -124.653602 -117.248871 -94.775288 0.000000 0.000001 -0.000001 0.490354 3.956236 -0.922860 -0.000011 0.000009 -3.000359 -5.000181 -7.998974 0.000125 -7.018853 67.866795 8.961671 -64.893054 113.343602 58.970883 0.000005 0.000028 0.000001 7.027133 8.872353 0.160217 -0.000001 -0.000011 3.000010 -5.000191 7.998825 -0.000176 3.936599 -174.842133 5.004663 -179.999991 0.000005 -1.177997 174.231432 -2.169963 -0.480164 -0.000007 -0.000005 0.096406 69.874563 6.905407 2.032643 25.456955 -7.355614 0.000002 2.535044 176.368557 -0.835129 -0.000005 -0.000005 -1.177000 -6.181689 1.899390 0.236484 -0.000011 0.000000 -0.083030 69.363918 -6.922102 -2.035896 25.456953 7.355612 -0.000002 
